<?xml version="1.0" standalone="no"?>
<!DOCTYPE svg PUBLIC "-//W3C//DTD SVG 20010904//EN"
 "http://www.w3.org/TR/2001/REC-SVG-20010904/DTD/svg10.dtd">
<svg version="1.0" xmlns="http://www.w3.org/2000/svg"
 width="1696.000000pt" height="2192.000000pt" viewBox="0 0 1696.000000 2192.000000"
 preserveAspectRatio="xMidYMid meet">

<g transform="translate(0.000000,2192.000000) scale(0.100000,-0.100000)"
fill="#000000" stroke="none">
<path d="M10845 11410 c-82 -10 -242 -32 -355 -49 -113 -17 -275 -40 -360 -51
-85 -11 -254 -34 -375 -51 -246 -33 -381 -51 -565 -74 -69 -8 -174 -22 -235
-30 -153 -21 -473 -61 -780 -97 -221 -27 -295 -32 -495 -32 -196 0 -253 3
-345 21 -100 18 -732 179 -1000 254 -60 17 -191 52 -290 76 -176 45 -181 45
-234 32 -64 -17 -93 -49 -93 -104 0 -27 6 -41 24 -53 12 -9 24 -14 24 -12 1 3
18 -15 39 -40 20 -25 41 -46 46 -48 11 -4 12 -43 1 -58 -4 -6 -54 -33 -112
-61 -115 -56 -156 -85 -144 -104 4 -8 3 -9 -4 -5 -8 5 -12 -1 -13 -16 0 -13
-3 -17 -6 -10 -2 6 -9 12 -14 12 -5 0 -3 -13 6 -29 14 -28 14 -30 -5 -36 -28
-9 -13 -28 17 -22 23 4 46 -10 56 -35 4 -10 8 -10 15 1 12 17 33 6 26 -13 -4
-10 7 -16 35 -21 26 -4 42 -13 46 -25 3 -11 12 -16 23 -13 10 2 31 -3 47 -11
17 -9 35 -16 41 -16 7 0 15 -7 18 -16 3 -8 14 -14 23 -13 34 3 42 -1 36 -17
-4 -12 0 -14 22 -12 20 2 28 -2 30 -15 4 -20 44 -56 63 -57 7 0 11 -4 7 -9 -3
-6 5 -19 17 -31 16 -15 22 -33 24 -70 1 -28 -3 -50 -9 -50 -6 0 -7 -16 -4 -40
3 -23 1 -38 -4 -34 -5 3 -9 -2 -9 -10 0 -9 7 -16 15 -16 8 0 15 -7 15 -15 0
-8 5 -15 11 -15 6 0 9 6 6 13 -4 10 8 13 45 14 28 0 53 5 57 9 3 5 29 11 56
13 28 1 68 9 90 17 57 19 148 32 171 23 10 -3 24 -2 31 3 7 5 22 6 35 2 13 -4
33 -7 46 -5 12 1 22 -2 22 -8 0 -5 9 -12 19 -16 17 -5 28 -23 61 -100 21 -48
30 -96 35 -185 13 -219 15 -358 5 -454 -6 -55 -15 -148 -20 -206 -6 -58 -17
-152 -25 -210 -8 -58 -19 -148 -25 -200 -6 -52 -17 -138 -25 -190 -8 -52 -26
-174 -40 -270 -14 -96 -37 -242 -50 -325 -14 -82 -36 -226 -50 -320 -36 -241
-73 -485 -90 -589 -24 -145 -21 -186 21 -264 21 -37 41 -72 45 -78 18 -23 61
-152 75 -222 51 -264 -40 -511 -219 -600 -26 -13 -47 -25 -47 -27 0 -5 24 0
37 8 6 4 14 3 18 -3 3 -5 17 -7 31 -4 13 3 31 1 38 -5 11 -9 15 -9 18 1 4 11
8 11 20 0 9 -7 19 -9 21 -5 3 5 20 10 39 11 18 1 42 6 53 11 11 5 37 16 57 25
39 17 111 93 102 107 -3 5 0 9 5 9 6 0 11 9 11 20 0 11 5 20 10 20 6 0 10 7
10 15 0 8 4 15 9 15 5 0 7 9 4 20 -3 13 1 22 11 26 11 4 15 13 10 26 -3 10 -1
25 5 32 27 32 72 271 66 349 -2 26 0 47 4 47 10 0 7 72 -3 89 -4 6 -3 11 2 11
5 0 8 27 8 60 0 33 -4 60 -9 60 -4 0 -5 6 0 13 4 6 8 26 9 42 0 17 4 38 8 48
6 12 4 17 -8 17 -9 0 -16 5 -16 10 0 6 4 10 8 10 4 0 8 72 7 161 0 88 3 163 7
166 5 2 5 9 2 15 -8 13 -8 237 0 245 3 3 1 14 -5 24 -6 13 -6 25 0 38 6 10 7
22 3 25 -9 10 0 605 12 751 3 39 6 83 6 100 0 16 6 33 13 37 9 6 9 10 0 16 -7
4 -11 32 -11 67 0 33 -1 65 -2 70 -2 6 -2 13 -2 16 1 4 4 49 7 100 4 52 8 114
11 139 2 25 5 133 7 240 1 107 5 200 10 207 4 6 3 14 -1 17 -8 5 -7 68 2 108
2 9 -1 19 -7 21 -6 2 -7 9 -2 17 11 17 13 538 3 605 -4 28 -4 52 2 55 14 9 5
61 -12 71 -11 6 -15 22 -13 60 2 30 -2 55 -10 62 -9 9 -10 19 -2 40 7 20 6 32
-2 40 -17 17 -13 27 7 20 16 -6 16 -5 -1 14 -14 16 -15 22 -5 26 11 4 11 8 0
27 -12 20 -12 21 7 15 14 -4 23 0 31 15 7 12 16 18 23 13 7 -4 22 -6 34 -5 11
2 24 -2 28 -8 3 -5 10 -8 15 -5 5 3 28 -1 52 -9 24 -8 63 -20 88 -26 25 -7 48
-17 52 -24 6 -8 8 -8 8 1 0 10 6 10 28 0 15 -6 30 -16 33 -21 4 -5 16 -6 28
-3 12 3 21 2 21 -1 0 -4 14 -7 31 -8 21 -1 27 2 17 8 -8 6 -1 7 20 3 34 -7
128 10 150 28 8 6 17 6 26 -2 8 -7 17 -8 20 -3 6 10 63 26 84 23 6 -1 12 3 12
8 0 5 8 10 18 9 9 0 40 3 67 7 28 3 68 6 90 6 22 0 45 5 52 11 7 6 13 6 13 1
0 -10 13 -8 180 22 47 8 97 15 111 15 15 0 32 7 39 15 10 12 15 13 21 4 4 -7
14 -9 25 -4 11 4 28 7 39 6 17 -2 17 0 5 8 -12 9 -11 11 8 11 13 0 32 5 42 10
13 7 21 7 25 0 4 -6 11 -7 17 -4 5 4 35 7 66 7 35 0 64 6 74 15 9 7 22 11 28
7 6 -4 17 -1 25 5 8 7 15 9 15 5 0 -4 7 -1 16 6 9 7 33 12 55 10 25 -2 39 2
39 9 0 7 6 10 14 7 8 -3 17 -3 21 1 8 9 75 9 75 1 0 -10 94 -5 102 5 4 6 12 5
21 -3 11 -8 17 -9 22 -1 4 6 12 9 18 8 20 -4 171 24 184 35 7 5 25 6 40 2 16
-4 25 -3 21 0 -13 13 21 38 35 27 7 -6 18 -8 24 -4 6 4 41 7 77 7 39 -1 67 4
70 10 2 7 21 10 41 9 21 -2 47 1 58 7 14 8 22 8 27 -1 5 -9 17 -9 44 -2 26 8
36 7 36 -1 0 -8 4 -7 12 1 7 7 31 12 54 12 22 0 55 5 73 11 23 8 35 8 45 0 7
-6 16 -8 19 -5 3 4 21 8 39 10 17 2 37 9 42 14 6 6 27 10 47 10 21 0 40 4 43
9 3 5 21 11 40 13 24 3 32 0 29 -9 -7 -17 7 -16 26 1 17 16 85 27 169 29 28 1
52 4 52 8 0 4 8 8 18 7 33 0 107 14 119 24 7 5 16 7 21 4 5 -3 37 3 71 14 35
10 69 16 77 13 8 -3 14 0 14 6 0 6 13 11 29 11 17 0 32 4 35 9 3 5 15 7 26 4
11 -3 20 -1 20 4 0 5 14 7 31 5 22 -3 30 -1 25 7 -4 6 -2 12 3 12 15 2 23 4
43 13 9 4 22 5 28 1 5 -3 10 -1 10 5 0 6 11 15 24 21 29 13 41 51 26 79 -13
24 -24 24 -225 0z m-4715 -1090 c0 -5 -4 -10 -10 -10 -5 0 -10 5 -10 10 0 6 5
10 10 10 6 0 10 -4 10 -10z"/>
<path d="M5522 10883 c-6 -2 -10 -9 -6 -14 8 -14 21 -11 21 6 0 8 -1 15 -1 14
-1 0 -7 -3 -14 -6z"/>
<path d="M12069 7113 c-13 -9 -31 -24 -39 -33 -112 -118 -267 -185 -411 -178
l-79 3 0 -75 c0 -41 -6 -114 -14 -162 -7 -49 -9 -88 -5 -88 4 0 10 6 12 13 4
9 8 8 16 -3 7 -10 13 -11 19 -4 4 5 37 10 74 10 36 -1 64 2 61 7 -2 4 5 7 15
7 11 0 25 7 32 15 7 8 19 15 28 15 19 0 117 78 133 107 6 12 15 21 18 19 3 -2
22 16 41 39 19 24 44 48 55 55 11 6 38 34 59 62 43 55 52 103 32 163 -16 46
-18 47 -47 28z"/>
<path d="M5887 6272 c-29 -32 -22 -59 19 -66 19 -4 50 -16 69 -26 36 -20 45
-17 45 12 0 19 -41 61 -84 85 -28 16 -30 16 -49 -5z"/>
<path d="M6180 6038 c0 -7 9 -26 20 -43 11 -16 20 -38 20 -47 0 -10 3 -17 8
-17 4 1 14 1 22 0 13 -1 13 -2 0 -11 -13 -8 -11 -11 8 -16 16 -5 22 -14 22
-35 0 -23 5 -29 23 -30 21 0 21 -1 2 -9 -18 -7 -16 -10 18 -24 24 -11 37 -22
34 -30 -8 -19 33 -51 63 -50 53 2 60 4 60 17 0 10 -10 12 -32 9 -29 -4 -31 -3
-20 11 8 9 20 13 28 10 8 -3 14 0 14 6 0 6 6 8 14 5 9 -3 20 3 28 15 7 12 18
21 25 21 7 0 13 5 13 11 0 5 5 7 12 3 7 -5 8 -3 3 5 -4 7 1 22 13 34 12 12 18
27 14 32 -12 17 -82 46 -217 90 -165 54 -195 61 -195 43z m235 -248 c3 -5 1
-10 -4 -10 -6 0 -11 5 -11 10 0 6 2 10 4 10 3 0 8 -4 11 -10z m-15 -41 c0 -5
-9 -4 -19 3 -11 7 -17 16 -14 20 5 10 33 -10 33 -23z"/>
<path d="M9265 5883 c-54 -7 -580 -94 -597 -99 -41 -12 -54 -129 -68 -606 -6
-194 -17 -543 -25 -775 -19 -522 -12 -608 54 -660 9 -7 79 -55 156 -107 77
-52 164 -115 192 -140 109 -98 170 -231 199 -436 16 -107 22 -456 11 -616 l-5
-81 46 0 c26 0 142 -13 257 -28 332 -44 613 -41 935 11 204 33 769 135 845
153 135 32 225 72 225 100 0 4 -42 -3 -92 -15 -262 -64 -433 -98 -763 -153
-319 -54 -482 -68 -611 -53 -92 11 -263 55 -274 72 -3 4 -16 11 -28 15 -13 4
-33 16 -43 26 -10 10 -26 19 -34 19 -8 0 -15 7 -15 16 0 8 -5 25 -11 36 -9 17
-13 18 -20 7 -7 -12 -9 -11 -9 1 0 9 5 21 12 28 9 9 8 12 -5 12 -19 0 -23 15
-7 25 6 4 4 12 -5 21 -8 9 -15 26 -15 39 0 13 -6 26 -12 28 -7 3 -2 6 12 7 24
1 24 1 6 15 -12 9 -19 28 -20 60 -1 33 -7 51 -21 61 -10 8 -13 14 -7 14 7 0
12 7 12 15 0 9 -6 12 -17 8 -12 -5 -14 -3 -8 7 10 17 13 240 3 246 -4 3 -8 13
-7 22 0 11 2 12 6 4 2 -6 9 -10 13 -7 5 3 2 18 -6 33 -18 35 -18 53 1 46 8 -4
15 -2 15 4 0 5 -7 12 -15 16 -17 6 -21 27 -4 24 6 -2 14 3 16 10 3 6 0 12 -6
12 -6 0 -11 9 -11 20 0 11 7 20 16 20 11 0 14 6 9 20 -5 16 -2 20 14 20 16 0
21 6 21 24 0 29 46 69 72 63 10 -3 18 -2 18 2 0 3 9 12 21 19 12 8 18 9 14 3
-3 -6 1 -11 9 -11 18 0 21 21 5 37 -8 8 -8 13 0 17 16 10 13 26 -4 26 -8 0
-15 7 -15 15 0 16 -74 95 -88 95 -5 0 -29 18 -53 41 -24 22 -46 40 -48 39 -2
-1 -9 7 -15 18 -6 10 -21 33 -33 51 -16 25 -19 40 -13 60 11 38 32 81 40 81 3
0 12 21 18 48 11 45 10 179 -3 342 -10 118 -12 395 -3 406 5 7 5 28 0 50 -5
22 -7 68 -5 103 2 35 -1 77 -6 92 -6 17 -6 31 -1 34 5 3 9 18 10 33 0 15 3 50
5 77 5 57 13 157 20 264 3 41 10 80 16 87 8 10 7 18 -6 30 -9 10 -13 23 -9 33
14 34 16 51 6 51 -5 0 -12 16 -15 35 -3 19 -15 48 -26 64 -11 15 -17 32 -13
36 4 5 1 5 -6 1 -16 -10 -44 23 -37 43 3 7 -6 22 -19 32 -15 12 -23 26 -19 34
4 12 -5 15 -48 14 -30 -1 -67 -4 -84 -6z"/>
<path d="M9681 3454 c0 -11 3 -14 6 -6 3 7 2 16 -1 19 -3 4 -6 -2 -5 -13z"/>
<path d="M5704 2586 c-19 -14 -19 -15 4 -46 19 -25 21 -34 12 -46 -7 -8 -19
-14 -26 -14 -20 0 -28 -44 -15 -82 6 -18 25 -48 41 -67 17 -18 30 -38 30 -44
0 -6 3 -8 6 -4 4 3 28 -6 55 -20 47 -24 91 -38 154 -50 17 -3 32 -9 35 -12 3
-4 28 -12 55 -19 28 -7 82 -29 122 -48 39 -19 77 -34 83 -34 6 0 18 -7 26 -15
9 -8 26 -15 39 -15 22 0 49 -9 130 -46 17 -7 55 -20 85 -29 30 -9 69 -21 85
-26 57 -20 150 -47 285 -80 l135 -34 270 0 c271 0 427 14 690 59 44 8 100 17
125 20 166 23 689 126 747 148 29 10 62 28 75 38 22 18 22 19 3 20 -11 0 -42
-7 -70 -15 -27 -9 -111 -26 -185 -40 -960 -173 -1181 -194 -1449 -139 -144 29
-267 68 -296 94 -11 10 -26 15 -32 13 -7 -3 -13 0 -13 5 0 5 -21 17 -47 26
-27 10 -56 21 -65 27 -10 5 -24 9 -31 9 -7 0 -23 9 -35 20 -14 13 -22 16 -22
8 0 -10 -2 -10 -9 0 -4 8 -11 13 -15 13 -3 -1 -23 6 -43 14 -20 8 -38 13 -40
11 -3 -3 -34 16 -70 40 -36 25 -71 43 -78 40 -7 -2 -24 7 -39 20 -14 14 -26
22 -26 18 0 -3 -16 3 -36 15 -19 12 -42 21 -50 21 -8 0 -14 5 -14 10 0 6 -6
10 -14 10 -7 0 -24 9 -38 19 -13 11 -38 23 -54 27 -16 4 -49 17 -74 30 -25 13
-53 24 -62 24 -24 0 -68 21 -68 33 0 5 -9 7 -19 4 -12 -3 -27 3 -37 14 -9 10
-25 19 -34 19 -9 0 -25 6 -35 14 -11 8 -26 11 -34 8 -9 -3 -12 -1 -7 6 5 8 -1
12 -16 12 -14 0 -33 7 -44 15 -24 18 -26 18 -50 1z"/>
</g>
</svg>
